<svg width="60" height="60" viewBox="0 0 60 60" fill="none" xmlns="http://www.w3.org/2000/svg">
<path d="M16.8175 20.5204C17.0342 20.737 17.27 20.8454 17.525 20.8454C17.78 20.8454 18.015 20.737 18.23 20.5204L20.855 17.8954C21.0733 17.6887 21.1825 17.4479 21.1825 17.1729C21.1825 16.8979 21.0742 16.6512 20.8575 16.4329L18.2325 13.8079C18.0125 13.5912 17.7758 13.4829 17.5225 13.4829C17.2692 13.4829 17.0342 13.5912 16.8175 13.8079L14.1925 16.4329C13.9758 16.6395 13.8675 16.8804 13.8675 17.1554C13.8675 17.4304 13.9758 17.677 14.1925 17.8954L16.8175 20.5204ZM11.54 34.4229C10.3883 34.4229 9.4275 34.0379 8.6575 33.2679C7.8875 32.4979 7.50167 31.537 7.5 30.3854V10.9604C7.5 9.81035 7.88583 8.85035 8.6575 8.08035C9.42917 7.31035 10.3892 6.92452 11.5375 6.92285H48.4625C49.6125 6.92285 50.5725 7.30869 51.3425 8.08035C52.1125 8.85202 52.4983 9.81202 52.5 10.9604V30.3854C52.5 31.5354 52.1142 32.4962 51.3425 33.2679C50.5708 34.0395 49.61 34.4245 48.46 34.4229H42.2925C41.9475 34.4229 41.6642 34.3029 41.4425 34.0629C41.2208 33.8229 41.1083 33.5254 41.105 33.1704C41.1017 32.8154 41.2217 32.5187 41.465 32.2804C41.7083 32.042 42.005 31.9229 42.355 31.9229H48.46C48.845 31.9229 49.1983 31.7629 49.52 31.4429C49.8417 31.1229 50.0017 30.7704 50 30.3854V10.9604C50 10.577 49.84 10.2245 49.52 9.90285C49.2 9.58118 48.8475 9.42118 48.4625 9.42285H11.5375C11.1542 9.42285 10.8017 9.58285 10.48 9.90285C10.1583 10.2229 9.99833 10.5762 10 10.9629V30.3854C10 30.7687 10.16 31.1212 10.48 31.4429C10.8 31.7645 11.1525 31.9245 11.5375 31.9229H17.645C17.9983 31.9229 18.295 32.0429 18.535 32.2829C18.775 32.5229 18.895 32.8204 18.895 33.1754C18.895 33.5304 18.775 33.827 18.535 34.0654C18.295 34.3037 17.9983 34.4229 17.645 34.4229H11.54ZM41.245 18.1729C41.9383 18.1729 42.5292 17.9312 43.0175 17.4479C43.5058 16.9645 43.75 16.3754 43.75 15.6804C43.75 14.9854 43.5075 14.3937 43.0225 13.9054C42.5375 13.417 41.9483 13.1729 41.255 13.1729C40.5617 13.1729 39.9708 13.4154 39.4825 13.9004C38.9942 14.3854 38.75 14.9745 38.75 15.6679C38.75 16.3612 38.9925 16.952 39.4775 17.4404C39.9625 17.9287 40.5517 18.1729 41.245 18.1729ZM17.02 53.0779C16.4467 53.0779 15.9667 52.8837 15.58 52.4954C15.1933 52.107 15 51.6287 15 51.0603V49.5604C15 48.5754 15.27 47.6604 15.81 46.8154C16.35 45.9704 17.0783 45.347 17.995 44.9454C19.9083 44.0837 21.865 43.4287 23.865 42.9804C25.865 42.532 27.91 42.3079 30 42.3079C32.09 42.3079 34.135 42.5312 36.135 42.9779C38.135 43.4245 40.0917 44.0795 42.005 44.9428C42.9217 45.3428 43.65 45.9654 44.19 46.8104C44.73 47.657 45 48.5729 45 49.5579V51.0578C45 51.6295 44.8067 52.1095 44.42 52.4979C44.0333 52.8862 43.5533 53.0795 42.98 53.0779H17.02ZM17.5 50.5779H42.5V49.5579C42.5 49.0579 42.3542 48.5995 42.0625 48.1829C41.7708 47.7662 41.3958 47.4537 40.9375 47.2454C39.1875 46.4537 37.3958 45.8495 35.5625 45.4329C33.7292 45.0162 31.875 44.8079 30 44.8079C28.125 44.8079 26.2708 45.0162 24.4375 45.4329C22.6042 45.8495 20.8125 46.4537 19.0625 47.2454C18.6042 47.4537 18.2292 47.7662 17.9375 48.1829C17.6458 48.5995 17.5 49.0579 17.5 49.5579V50.5779ZM30 38.8454C28.2567 38.8454 26.7792 38.2395 25.5675 37.0279C24.3558 35.8179 23.75 34.3404 23.75 32.5954C23.75 30.8504 24.3558 29.3729 25.5675 28.1629C26.7792 26.9529 28.2567 26.347 30 26.3454C31.7433 26.3437 33.2208 26.9495 34.4325 28.1629C35.6442 29.3762 36.25 30.8537 36.25 32.5954C36.25 34.337 35.6442 35.8145 34.4325 37.0279C33.2208 38.2412 31.7433 38.847 30 38.8454ZM30 36.3454C31.0417 36.3454 31.9275 35.9812 32.6575 35.2529C33.3875 34.5245 33.7517 33.6387 33.75 32.5954C33.7483 31.552 33.3842 30.667 32.6575 29.9404C31.9308 29.2137 31.045 28.8487 30 28.8454C28.955 28.842 28.07 29.207 27.345 29.9404C26.62 30.6737 26.255 31.5587 26.25 32.5954C26.245 33.632 26.61 34.5179 27.345 35.2529C28.08 35.9879 28.965 36.352 30 36.3454Z" fill="black"/>
</svg>
