<svg width="60" height="60" viewBox="0 0 60 60" fill="none" xmlns="http://www.w3.org/2000/svg">
<path d="M27.165 41.395C28.5617 41.395 29.7517 40.9033 30.735 39.92C31.7183 38.935 32.21 37.7433 32.21 36.345V22.5H36.8275C37.3442 22.5 37.7942 22.3167 38.1775 21.95C38.5608 21.5833 38.7517 21.125 38.75 20.575C38.75 20.06 38.5583 19.6108 38.175 19.2275C37.7917 18.8442 37.3417 18.6525 36.825 18.6525H32.2125C31.6958 18.6525 31.2458 18.8442 30.8625 19.2275C30.4792 19.6108 30.2875 20.0608 30.2875 20.5775V32.4025C29.8742 32.0608 29.4033 31.7917 28.875 31.595C28.3467 31.3983 27.7767 31.2992 27.165 31.2975C25.7667 31.2975 24.575 31.7892 23.59 32.7725C22.6067 33.7575 22.115 34.9492 22.115 36.3475C22.115 37.7458 22.6067 38.9358 23.59 39.9175C24.5733 40.8992 25.765 41.3908 27.165 41.3925M11.54 47.5C10.3883 47.5 9.4275 47.115 8.6575 46.345C7.8875 45.575 7.50167 44.6133 7.5 43.46V16.54C7.5 15.3883 7.88583 14.4275 8.6575 13.6575C9.42917 12.8875 10.3892 12.5017 11.5375 12.5H48.4625C49.6125 12.5 50.5725 12.8858 51.3425 13.6575C52.1125 14.4292 52.4983 15.39 52.5 16.54V43.4625C52.5 44.6125 52.1142 45.5733 51.3425 46.345C50.5708 47.1167 49.6108 47.5017 48.4625 47.5H11.54ZM11.54 45H48.4625C48.8458 45 49.1983 44.84 49.52 44.52C49.8417 44.2 50.0017 43.8467 50 43.46V16.54C50 16.155 49.84 15.8017 49.52 15.48C49.2 15.1583 48.8475 14.9983 48.4625 15H11.5375C11.1542 15 10.8017 15.16 10.48 15.48C10.1583 15.8 9.99833 16.1533 10 16.54V43.4625C10 43.8458 10.16 44.1983 10.48 44.52C10.8 44.8417 11.1525 45.0017 11.5375 45" fill="black"/>
</svg>
