<svg width="60" height="60" viewBox="0 0 60 60" fill="none" xmlns="http://www.w3.org/2000/svg">
<path d="M15.575 52.5C14.0267 52.5 12.71 51.9667 11.625 50.9C10.5417 49.8367 10 48.5442 10 47.0225V13.075C10 11.525 10.5417 10.2083 11.625 9.125C12.7117 8.04167 14.0283 7.5 15.575 7.5H41.54V44.04H15.575C14.7383 44.04 14.0167 44.3242 13.41 44.8925C12.8033 45.4642 12.5 46.17 12.5 47.01C12.5 47.85 12.8042 48.5583 13.4125 49.135C14.0208 49.7117 14.7425 50 15.5775 50H47.5V12.5H50V52.5H15.575ZM20.9625 41.54H39.0375V10H20.9625V41.54ZM18.4625 41.54V10H15.575C14.7033 10 13.9725 10.3042 13.3825 10.9125C12.7942 11.5175 12.5 12.2383 12.5 13.075V42.55C12.95 42.265 13.4283 42.025 13.935 41.83C14.4417 41.635 14.9892 41.5375 15.5775 41.5375L18.4625 41.54Z" fill="black"/>
</svg>
