<svg width="60" height="60" viewBox="0 0 60 60" fill="none" xmlns="http://www.w3.org/2000/svg">
<path d="M20.1925 42.115C20.8342 42.115 21.3792 41.8908 21.8275 41.4425C22.2758 40.9942 22.5 40.4492 22.5 39.8075C22.5 39.1658 22.275 38.6208 21.825 38.1725C21.375 37.7242 20.8317 37.5 20.195 37.5C19.5583 37.5 19.0133 37.725 18.56 38.175C18.1067 38.625 17.8817 39.1692 17.885 39.8075C17.8883 40.4458 18.1133 40.9908 18.56 41.4425C19.0067 41.8942 19.5517 42.1192 20.195 42.1175M20.195 22.5C20.8367 22.5 21.3817 22.275 21.83 21.825C22.2783 21.375 22.5017 20.8317 22.5 20.195C22.4983 19.5583 22.2733 19.0133 21.825 18.56C21.3767 18.1067 20.8325 17.8817 20.1925 17.885C19.5525 17.8883 19.0075 18.1133 18.5575 18.56C18.1075 19.0067 17.8825 19.5517 17.8825 20.195C17.8825 20.8383 18.1075 21.3833 18.5575 21.83C19.0075 22.2767 19.5525 22.5008 20.1925 22.5025M30 32.3075C30.6417 32.3075 31.1867 32.0825 31.635 31.6325C32.0833 31.1825 32.3075 30.6383 32.3075 30C32.3075 29.3617 32.0825 28.8167 31.6325 28.365C31.1825 27.9133 30.6383 27.6892 30 27.6925C29.3617 27.6958 28.8167 27.9208 28.365 28.3675C27.9133 28.8142 27.6892 29.3583 27.6925 30C27.6958 30.6417 27.9208 31.1867 28.3675 31.635C28.8142 32.0833 29.3583 32.3075 30 32.3075ZM39.8075 42.115C40.4492 42.115 40.9942 41.8908 41.4425 41.4425C41.8908 40.9942 42.1158 40.4492 42.1175 39.8075C42.1192 39.1658 41.8942 38.6208 41.4425 38.1725C40.9908 37.7242 40.4458 37.5 39.8075 37.5C39.1692 37.5 38.6242 37.725 38.1725 38.175C37.7208 38.625 37.4967 39.1692 37.5 39.8075C37.5033 40.4458 37.7283 40.9908 38.175 41.4425C38.6217 41.8942 39.1658 42.1167 39.8075 42.115ZM39.8075 22.5C40.4492 22.5 40.9942 22.275 41.4425 21.825C41.8908 21.375 42.1158 20.8308 42.1175 20.1925C42.1192 19.5542 41.8942 19.0092 41.4425 18.5575C40.9908 18.1058 40.4458 17.8808 39.8075 17.8825C39.1692 17.8842 38.6242 18.1092 38.1725 18.5575C37.7208 19.0058 37.4967 19.5508 37.5 20.1925C37.5033 20.8342 37.7283 21.3792 38.175 21.8275C38.6217 22.2758 39.1658 22.5 39.8075 22.5ZM10 50V10H50V50H10ZM12.5 47.5H47.5V12.5H12.5V47.5Z" fill="black"/>
</svg>
