<svg width="60" height="60" viewBox="0 0 60 60" fill="none" xmlns="http://www.w3.org/2000/svg">
<path d="M46.26 18.27C46.8333 18.27 47.3117 18.0758 47.695 17.6875C48.0783 17.2975 48.27 16.8158 48.27 16.2425C48.27 15.6675 48.075 15.1883 47.685 14.805C47.2967 14.4217 46.8158 14.23 46.2425 14.23C45.6675 14.23 45.1883 14.425 44.805 14.815C44.4217 15.2033 44.23 15.6842 44.23 16.2575C44.23 16.8325 44.4242 17.3117 44.8125 17.695C45.2025 18.0783 45.6867 18.27 46.26 18.27ZM36.2575 18.27C36.8325 18.27 37.3117 18.0758 37.695 17.6875C38.0783 17.2975 38.27 16.8158 38.27 16.2425C38.27 15.6675 38.075 15.1883 37.685 14.805C37.2967 14.4217 36.8158 14.23 36.2425 14.23C35.6675 14.23 35.1883 14.425 34.805 14.815C34.4217 15.2033 34.23 15.6842 34.23 16.2575C34.23 16.8325 34.4242 17.3117 34.8125 17.695C35.2025 18.0783 35.6842 18.27 36.2575 18.27ZM41.25 22.98C40.2667 22.98 39.32 23.1475 38.41 23.4825C37.5 23.8175 36.7617 24.3825 36.195 25.1775C35.955 25.5308 35.9592 25.8842 36.2075 26.2375C36.4558 26.5908 36.83 26.7683 37.33 26.77H45.175C45.6433 26.77 46.0017 26.5925 46.25 26.2375C46.4983 25.8825 46.5025 25.5292 46.2625 25.1775C45.6975 24.3825 44.9667 23.8175 44.07 23.4825C43.1717 23.1492 42.2317 22.98 41.25 22.98ZM18.7625 52.5C15.2925 52.5 12.34 51.285 9.905 48.855C7.46833 46.4233 6.25 43.4717 6.25 40V29.04C6.25 27.9283 6.64583 26.9775 7.4375 26.1875C8.22917 25.3975 9.17917 25.0017 10.2875 25H27.2125C28.3225 25 29.2725 25.3958 30.0625 26.1875C30.8525 26.9792 31.2483 27.9292 31.25 29.0375V40C31.25 43.4717 30.0358 46.4233 27.6075 48.855C25.1792 51.2867 22.2308 52.5017 18.7625 52.5ZM18.75 50C21.5 50 23.8542 49.0208 25.8125 47.0625C27.7708 45.1042 28.75 42.75 28.75 40V29.04C28.75 28.59 28.6058 28.2208 28.3175 27.9325C28.0292 27.6442 27.6608 27.5 27.2125 27.5H10.2875C9.83917 27.5 9.47083 27.6442 9.1825 27.9325C8.89417 28.2208 8.75 28.59 8.75 29.04V40C8.75 42.75 9.72917 45.1042 11.6875 47.0625C13.6458 49.0208 16 50 18.75 50ZM53.75 11.5375V22.5C53.75 26.0767 52.4833 29.0625 49.95 31.4575C47.4167 33.8525 44.3833 35.0492 40.85 35.0475C40.12 35.0475 39.4008 34.9825 38.6925 34.8525C37.9842 34.7192 37.2967 34.5008 36.63 34.1975C36.2833 34.0525 36.0608 33.8042 35.9625 33.4525C35.8625 33.0992 35.9008 32.7492 36.0775 32.4025C36.2542 32.0558 36.5108 31.8392 36.8475 31.7525C37.1842 31.6658 37.5092 31.6942 37.8225 31.8375C38.3775 32.0908 38.9508 32.2642 39.5425 32.3575C40.1342 32.4508 40.7242 32.4983 41.3125 32.5C44.0625 32.5 46.4067 31.5208 48.345 29.5625C50.2833 27.6042 51.2517 25.25 51.25 22.5V11.54C51.25 11.09 51.1058 10.7208 50.8175 10.4325C50.5292 10.1442 50.1608 10 49.7125 10H32.7875C32.3392 10 31.9708 10.1442 31.6825 10.4325C31.3942 10.7208 31.25 11.09 31.25 11.54V20C31.25 20.355 31.13 20.6517 30.89 20.89C30.65 21.1283 30.3525 21.2483 29.9975 21.25C29.6425 21.2517 29.3458 21.1317 29.1075 20.89C28.8692 20.6483 28.75 20.3517 28.75 20V11.54C28.75 10.4283 29.1458 9.4775 29.9375 8.6875C30.7292 7.8975 31.6792 7.50167 32.7875 7.5H49.7125C50.8225 7.5 51.7725 7.89583 52.5625 8.6875C53.3525 9.47917 53.7483 10.4292 53.75 11.5375ZM13.7575 35.77C14.3325 35.77 14.8117 35.575 15.195 35.185C15.5783 34.7967 15.77 34.3158 15.77 33.7425C15.77 33.1675 15.5758 32.6883 15.1875 32.305C14.7975 31.9217 14.3158 31.73 13.7425 31.73C13.1675 31.73 12.6883 31.9242 12.305 32.3125C11.9217 32.7025 11.73 33.1842 11.73 33.7575C11.73 34.3325 11.925 34.8117 12.315 35.195C12.7033 35.5783 13.1842 35.77 13.7575 35.77ZM23.7575 35.77C24.3325 35.77 24.8117 35.575 25.195 35.185C25.5783 34.7967 25.77 34.3158 25.77 33.7425C25.77 33.1675 25.5758 32.6883 25.1875 32.305C24.7975 31.9217 24.3158 31.73 23.7425 31.73C23.1675 31.73 22.6883 31.9242 22.305 32.3125C21.9217 32.7025 21.73 33.1842 21.73 33.7575C21.73 34.3325 21.925 34.8117 22.315 35.195C22.7033 35.5783 23.1842 35.77 23.7575 35.77ZM18.75 44.27C19.725 44.27 20.6608 44.1042 21.5575 43.7725C22.4558 43.4425 23.1967 42.89 23.78 42.115C24.02 41.7533 24.0233 41.39 23.79 41.025C23.555 40.6617 23.1925 40.48 22.7025 40.48H14.7975C14.3075 40.48 13.9458 40.6625 13.7125 41.0275C13.4792 41.3908 13.4825 41.7533 13.7225 42.115C14.3058 42.8917 15.0458 43.445 15.9425 43.775C16.8408 44.105 17.7767 44.27 18.75 44.27Z" fill="black"/>
</svg>
