<svg width="60" height="60" viewBox="0 0 60 60" fill="none" xmlns="http://www.w3.org/2000/svg">
<path d="M19.375 47.0202V35.5752L28.5575 41.2952L19.375 47.0202ZM32.5 24.0402C30.63 24.0402 29.0408 23.3861 27.7325 22.0777C26.4242 20.7694 25.77 19.1827 25.77 17.3177C25.77 15.4527 26.4242 13.8627 27.7325 12.5477C29.0408 11.2327 30.63 10.5761 32.5 10.5777H34.855V12.7877H32.5C31.245 12.7877 30.1783 13.2286 29.3 14.1102C28.4217 14.9919 27.9817 16.0619 27.98 17.3202C27.9783 18.5786 28.4175 19.6444 29.2975 20.5177C30.1775 21.3911 31.245 21.8269 32.5 21.8252H34.855V24.0377L32.5 24.0402ZM40.145 24.0402V21.8252H42.5C43.755 21.8252 44.8217 21.3844 45.7 20.5027C46.5783 19.6211 47.0183 18.5511 47.02 17.2927C47.0217 16.0344 46.5817 14.9686 45.7 14.0952C44.8183 13.2219 43.7517 12.7869 42.5 12.7902H40.145V10.5752H42.5C44.37 10.5752 45.9592 11.2286 47.2675 12.5352C48.5758 13.8419 49.23 15.4286 49.23 17.2952C49.23 19.1619 48.5758 20.7519 47.2675 22.0652C45.9592 23.3786 44.37 24.0369 42.5 24.0402H40.145ZM33.27 18.4152V16.2002H41.73V18.4102L33.27 18.4152ZM38.855 32.7402V30.2402H50.96C51.41 30.2402 51.7792 30.0961 52.0675 29.8077C52.3558 29.5194 52.5 29.1511 52.5 28.7027V9.27523C52.5 8.8269 52.3558 8.45857 52.0675 8.17023C51.7792 7.8819 51.4108 7.73773 50.9625 7.73773H24.0375C23.5892 7.73773 23.2208 7.8819 22.9325 8.17023C22.6442 8.45857 22.5 8.82857 22.5 9.28023V28.7977H20V9.28023C20 8.16857 20.3958 7.21773 21.1875 6.42773C21.9792 5.63773 22.9292 5.2419 24.0375 5.24023H50.9625C52.0725 5.24023 53.0225 5.63607 53.8125 6.42773C54.6025 7.2194 54.9983 8.16857 55 9.27523V28.7002C55 29.8102 54.6042 30.7602 53.8125 31.5502C53.0225 32.3419 52.0725 32.7377 50.9625 32.7377L38.855 32.7402ZM9.04001 54.7602C7.92834 54.7602 6.97667 54.3644 6.18501 53.5727C5.39334 52.7811 4.99834 51.8319 5.00001 50.7252V31.8752C5.00001 30.7652 5.39584 29.8152 6.18751 29.0252C6.97751 28.2319 7.92751 27.8352 9.03751 27.8352H35.9625C37.0725 27.8352 38.0225 28.2311 38.8125 29.0227C39.6042 29.8144 40 30.7652 40 31.8752V50.7227C40 51.8327 39.6042 52.7827 38.8125 53.5727C38.0208 54.3627 37.0708 54.7586 35.9625 54.7602H9.04001ZM9.04001 52.2602H35.9625C36.4108 52.2602 36.7792 52.1161 37.0675 51.8277C37.3558 51.5394 37.5 51.1711 37.5 50.7227V31.8752C37.5 31.4252 37.3558 31.0569 37.0675 30.7702C36.7792 30.4819 36.41 30.3377 35.96 30.3377H9.04001C8.59001 30.3377 8.22084 30.4819 7.93251 30.7702C7.64417 31.0586 7.50001 31.4269 7.50001 31.8752V50.7227C7.50001 51.1711 7.64417 51.5394 7.93251 51.8277C8.22084 52.1161 8.59001 52.2602 9.04001 52.2602Z" fill="black"/>
</svg>
