<svg width="60" height="60" viewBox="0 0 60 60" fill="none" xmlns="http://www.w3.org/2000/svg">
<path d="M12.5 42.5V47.5V12.5V42.5ZM14.04 50C12.92 50 11.9667 49.6067 11.18 48.82C10.3933 48.0333 10 47.0808 10 45.9625V14.0375C10 12.9208 10.3933 11.9683 11.18 11.18C11.9667 10.3933 12.92 10 14.04 10H45.9625C47.0792 10 48.0317 10.3933 48.82 11.18C49.6067 11.9667 50 12.92 50 14.04V21.395H47.5V14.04C47.5 13.59 47.3558 13.2208 47.0675 12.9325C46.7792 12.6442 46.4108 12.5 45.9625 12.5H14.0375C13.5892 12.5 13.2208 12.6442 12.9325 12.9325C12.6442 13.2208 12.5 13.59 12.5 14.04V45.9625C12.5 46.4108 12.6442 46.7792 12.9325 47.0675C13.2208 47.3558 13.59 47.5 14.04 47.5H45.9625C46.4108 47.5 46.7792 47.3558 47.0675 47.0675C47.3558 46.7792 47.5 46.4108 47.5 45.9625V38.605H50V45.9625C50 47.0792 49.6067 48.0317 48.82 48.82C48.0333 49.6067 47.0808 50 45.9625 50H14.04ZM34.04 40C32.92 40 31.9667 39.6067 31.18 38.82C30.3933 38.0333 30 37.0808 30 35.9625V24.0375C30 22.9208 30.3933 21.9683 31.18 21.18C31.9667 20.3933 32.92 20 34.04 20H48.4625C49.5792 20 50.5317 20.3933 51.32 21.18C52.1067 21.9667 52.5 22.92 52.5 24.04V35.9625C52.5 37.0792 52.1067 38.0317 51.32 38.82C50.5333 39.6067 49.5808 40 48.4625 40H34.04ZM48.4625 37.5C48.9108 37.5 49.2792 37.3558 49.5675 37.0675C49.8558 36.7792 50 36.4108 50 35.9625V24.0375C50 23.5892 49.8558 23.2208 49.5675 22.9325C49.2792 22.6442 48.9108 22.5 48.4625 22.5H34.0375C33.5892 22.5 33.2208 22.6442 32.9325 22.9325C32.6442 23.2208 32.5 23.59 32.5 24.04V35.9625C32.5 36.4108 32.6442 36.7792 32.9325 37.0675C33.2208 37.3558 33.59 37.5 34.04 37.5H48.4625ZM40 33.75C41.0417 33.75 41.9275 33.3858 42.6575 32.6575C43.3875 31.9292 43.7517 31.0433 43.75 30C43.7483 28.9567 43.3842 28.0717 42.6575 27.345C41.9308 26.6183 41.045 26.2533 40 26.25C38.955 26.2467 38.07 26.6117 37.345 27.345C36.62 28.0783 36.255 28.9633 36.25 30C36.245 31.0367 36.61 31.9225 37.345 32.6575C38.08 33.3925 38.965 33.7567 40 33.75Z" fill="black"/>
</svg>
