<svg width="60" height="60" viewBox="0 0 60 60" fill="none"
  xmlns="http://www.w3.org/2000/svg">
  <path d="M20.3127 17.73L26.8327 9.055C27.2293 8.51833 27.701 8.125 28.2477 7.875C28.7943 7.625 29.3785 7.5 30.0002 7.5C30.6218 7.5 31.206 7.625 31.7527 7.875C32.2994 8.125 32.771 8.5175 33.1677 9.0525L39.6877 17.73L49.7377 21.15C50.6277 21.45 51.3127 21.9542 51.7927 22.6625C52.2743 23.3725 52.5152 24.1558 52.5152 25.0125C52.5152 25.4075 52.4569 25.8 52.3402 26.19C52.2235 26.58 52.0335 26.9542 51.7702 27.3125L45.1827 36.245L45.4327 45.82C45.4744 46.9967 45.086 47.9875 44.2677 48.7925C43.4494 49.5975 42.4968 50 41.4102 50L40.2752 49.86L30.0002 46.8325L19.7252 49.86C19.5185 49.9433 19.3185 49.9875 19.1252 49.9925C18.9302 49.9975 18.7518 50 18.5902 50C17.4818 50 16.5235 49.5975 15.7152 48.7925C14.9068 47.9875 14.5244 46.9975 14.5677 45.8225L14.8177 36.1825L8.24518 27.3125C7.98018 26.9508 7.78935 26.5733 7.67268 26.18C7.55768 25.7867 7.50018 25.3933 7.50018 25C7.50018 24.1567 7.74768 23.3717 8.24268 22.645C8.73602 21.92 9.42602 21.405 10.3127 21.1L20.3127 17.73ZM21.8852 19.88L11.1552 23.495C10.6735 23.655 10.3443 23.9833 10.1677 24.48C9.99102 24.9767 10.0635 25.4333 10.3852 25.85L17.3652 35.45L17.0677 45.85C17.0344 46.395 17.226 46.8283 17.6427 47.15C18.0594 47.47 18.5252 47.55 19.0402 47.39L30.0002 44.24L40.9627 47.4525C41.4744 47.6125 41.9385 47.5325 42.3552 47.2125C42.7718 46.8908 42.9644 46.4575 42.9327 45.9125L42.6327 35.4525L49.6152 25.9775C49.9352 25.5608 50.0077 25.1033 49.8327 24.605C49.656 24.1083 49.3269 23.78 48.8452 23.62L38.1152 19.88L31.2027 10.6725C30.9143 10.2558 30.5135 10.0475 30.0002 10.0475C29.4868 10.0475 29.0869 10.2558 28.8002 10.6725L21.8852 19.88Z" fill="#6aad64"/>
</svg>
