<svg width="50" height="50" viewBox="0 0 50 50" fill="none" xmlns="http://www.w3.org/2000/svg">
<path d="M21.5 29.5L16.125 24.125C15.6667 23.6667 15.0833 23.4375 14.375 23.4375C13.6667 23.4375 13.0833 23.6667 12.625 24.125C12.1667 24.5833 11.9375 25.1667 11.9375 25.875C11.9375 26.5833 12.1667 27.1667 12.625 27.625L19.75 34.75C20.25 35.25 20.8333 35.5 21.5 35.5C22.1667 35.5 22.75 35.25 23.25 34.75L37.375 20.625C37.8333 20.1667 38.0625 19.5833 38.0625 18.875C38.0625 18.1667 37.8333 17.5833 37.375 17.125C36.9167 16.6667 36.3333 16.4375 35.625 16.4375C34.9167 16.4375 34.3333 16.6667 33.875 17.125L21.5 29.5ZM25 50C21.5417 50 18.2917 49.3433 15.25 48.03C12.2083 46.7167 9.5625 44.9358 7.3125 42.6875C5.0625 40.4392 3.28167 37.7933 1.97 34.75C0.658337 31.7067 0.00166983 28.4567 3.16456e-06 25C-0.0016635 21.5433 0.655003 18.2933 1.97 15.25C3.285 12.2067 5.06584 9.56083 7.3125 7.3125C9.55917 5.06417 12.205 3.28333 15.25 1.97C18.295 0.656667 21.545 0 25 0C28.455 0 31.705 0.656667 34.75 1.97C37.795 3.28333 40.4408 5.06417 42.6875 7.3125C44.9342 9.56083 46.7158 12.2067 48.0325 15.25C49.3492 18.2933 50.005 21.5433 50 25C49.995 28.4567 49.3383 31.7067 48.03 34.75C46.7217 37.7933 44.9408 40.4392 42.6875 42.6875C40.4342 44.9358 37.7883 46.7175 34.75 48.0325C31.7117 49.3475 28.4617 50.0033 25 50ZM25 45C30.5833 45 35.3125 43.0625 39.1875 39.1875C43.0625 35.3125 45 30.5833 45 25C45 19.4167 43.0625 14.6875 39.1875 10.8125C35.3125 6.9375 30.5833 5 25 5C19.4167 5 14.6875 6.9375 10.8125 10.8125C6.9375 14.6875 5 19.4167 5 25C5 30.5833 6.9375 35.3125 10.8125 39.1875C14.6875 43.0625 19.4167 45 25 45Z" fill="black"/>
</svg>
